<?xml version="1.0" encoding="utf-8"?>
<!-- Generator: Adobe Illustrator 27.5.0, SVG Export Plug-In . SVG Version: 6.00 Build 0)  -->
<svg version="1.1" xmlns="http://www.w3.org/2000/svg" xmlns:xlink="http://www.w3.org/1999/xlink" x="0px" y="0px"
	 viewBox="0 0 3710 3710" style="enable-background:new 0 0 3710 3710;" xml:space="preserve">
<g id="Background">
	<g>
		<g>
			<rect style="fill:#FFFFFF;" width="3710" height="3710"/>
		</g>
	</g>
</g>
<g id="Illustration">
	<g>
		<path style="fill:#F4F7FA;" d="M1898.567,494.542C1181.779,473.376,560.889,993.475,467.083,1675.91
			C364.521,2422.06,929.014,3093.415,1623.6,3200.942c863.948,133.747,1701.929-639.991,1626.687-1479.382
			C3193.599,1089.153,2627.196,516.058,1898.567,494.542z"/>
		<g>
			<g>
				
					<linearGradient id="SVGID_1_" gradientUnits="userSpaceOnUse" x1="-470.4134" y1="1269.1501" x2="4.9367" y2="1269.1501" gradientTransform="matrix(-1 0 0 1 1148.7013 0)">
					<stop  offset="0" style="stop-color:#FF9085"/>
					<stop  offset="1" style="stop-color:#FB6FBB"/>
				</linearGradient>
				<path style="fill:url(#SVGID_1_);" d="M1160.92,913.441c57.147,190.972,324.005,1182.516,337.808,1099.695
					c0,0,87.688,7.937,112.05-180.516c2.452-19.049,4.28-40.099,5.281-63.359c11.008-253.502-4.418-1215.541-101.146-1074.779
					c-96.694,140.762-86.961,232.486-103.319,76.851c-16.392-155.669-37.822-307.267-124.473-230.485
					c-4.935,4.383-9.904,8.869-14.909,13.424C1189.978,629.881,1107.052,733.408,1160.92,913.441z"/>
				
					<linearGradient id="SVGID_00000068650140923055124160000009594441961876908930_" gradientUnits="userSpaceOnUse" x1="-462.0759" y1="1286.1549" x2="4.9367" y2="1286.1549" gradientTransform="matrix(-1 0 0 1 1148.7013 0)">
					<stop  offset="0" style="stop-color:#FF9085"/>
					<stop  offset="1" style="stop-color:#FB6FBB"/>
				</linearGradient>
				<path style="opacity:0.3;fill:url(#SVGID_00000068650140923055124160000009594441961876908930_);" d="M1160.92,913.441
					c57.147,190.972,324.005,1182.516,337.808,1099.695c0,0,87.688,7.937,112.05-180.516
					c-10.627-127.096-110.946-250.88-150.009-306.059c-58.665-82.821-86.272-96.625-48.313-257.402
					c37.96-160.777,10.353-236.075-96.625-467.285c-48.279-104.355-52.971-187.625-43.62-247.601
					C1189.978,629.881,1107.052,733.408,1160.92,913.441z"/>
			</g>
			<g>
				
					<linearGradient id="SVGID_00000139257373224477953650000011960397250968408998_" gradientUnits="userSpaceOnUse" x1="159.3031" y1="1241.8993" x2="954.2467" y2="1241.8993" gradientTransform="matrix(-0.9938 0.1116 0.1116 0.9938 1443.4419 10.2369)">
					<stop  offset="0" style="stop-color:#FFC444"/>
					<stop  offset="0.0985" style="stop-color:#FEBC46"/>
					<stop  offset="0.9964" style="stop-color:#F36F56"/>
				</linearGradient>
				<path style="fill:url(#SVGID_00000139257373224477953650000011960397250968408998_);" d="M712.792,1455.757
					c163.632,173.595,614.141,510.284,751.23,541.775c30.763,7.069,45.768-1.248,38.178-30.191
					c0,0-132.646-1352.432-512.596-1391.56c-50.87-5.228-122.183-2.015-167.553,24.122c-7.826,4.525-14.911,9.452-21.362,14.795
					c-101.799,84.594-37.897,268.724,6.955,367.589c16.668,36.813,43.184,67,62.358,102.316
					c16.288,30.015,21.775,69.924-21.374,66.364c-39.609-3.297-65.422-49.815-101.051-62.796
					c-40.434-14.664-72.247,5.089-98.418,54.698C594.006,1247.334,634.152,1372.354,712.792,1455.757z"/>
				
					<linearGradient id="SVGID_00000054967111050057914010000016791361261082130110_" gradientUnits="userSpaceOnUse" x1="201.3101" y1="1253.0103" x2="954.2467" y2="1253.0103" gradientTransform="matrix(-0.9938 0.1116 0.1116 0.9938 1443.4419 10.2369)">
					<stop  offset="0" style="stop-color:#FFC444"/>
					<stop  offset="0.0985" style="stop-color:#FEBC46"/>
					<stop  offset="0.9964" style="stop-color:#F36F56"/>
				</linearGradient>
				<path style="opacity:0.3;fill:url(#SVGID_00000054967111050057914010000016791361261082130110_);" d="M712.792,1455.757
					c163.632,173.595,614.141,510.284,751.23,541.775c-17.706-42.044-38.411-88.822-62.653-140.516
					c-143.825-306.803-418.138-244.758-313.208-470.064c104.926-225.341,90.384-447.689-112.646-554.321
					C855.399,769.51,814.276,678.492,800.69,614.698c-101.799,84.594-37.897,268.724,6.955,367.589
					c16.668,36.813,43.184,67,62.358,102.316c16.288,30.015,21.775,69.924-21.374,66.364
					c-39.609-3.297-65.422-49.815-101.051-62.796c-40.434-14.664-72.247,5.089-98.418,54.698
					C594.006,1247.334,634.152,1372.354,712.792,1455.757z"/>
			</g>
		</g>
		<g>
			
				<linearGradient id="SVGID_00000091731018171450317150000011159673443180893071_" gradientUnits="userSpaceOnUse" x1="834.1092" y1="1802.6001" x2="1243.4277" y2="1759.8354">
				<stop  offset="0.0036" style="stop-color:#26264F"/>
				<stop  offset="1" style="stop-color:#444B8C"/>
			</linearGradient>
			<path style="fill:url(#SVGID_00000091731018171450317150000011159673443180893071_);" d="M665.447,2653.585
				c-48.899,2.857-88.871-31.325-88.871-76.209V959.628c0-44.885,39.972-79.952,88.871-78.177l2308.145,83.756
				c37.396,1.357,67.695,34.187,67.695,73.186v1405.653c0,39-30.299,72.5-67.695,74.686L665.447,2653.585z"/>
			
				<linearGradient id="SVGID_00000054958393216799543310000012800750841242635707_" gradientUnits="userSpaceOnUse" x1="1706.6503" y1="3053.0869" x2="1793.3728" y2="2928.8625">
				<stop  offset="0" style="stop-color:#444B8C"/>
				<stop  offset="0.9964" style="stop-color:#26264F"/>
			</linearGradient>
			<path style="fill:url(#SVGID_00000054958393216799543310000012800750841242635707_);" d="M2170.264,2832.644
				c-36.892-12.838-64.466-45.688-72.241-86.064l-53.695-278.824l-459.325,17.113l-56.53,290.472
				c-7.917,40.68,23.775,81.493,60.275,96.476l192.172,78.887c35.743,14.673,74.163,20.517,112.35,17.089l406.128-36.452
				c11.873-1.065,21.395-10.857,22.777-23.418c1.382-12.562,9.7-26.666-1.621-30.606L2170.264,2832.644z"/>
			
				<linearGradient id="SVGID_00000029750784804072698340000015877877739009165740_" gradientUnits="userSpaceOnUse" x1="1969.1736" y1="3021.2424" x2="1836.4469" y2="2300.7275">
				<stop  offset="0" style="stop-color:#444B8C"/>
				<stop  offset="0.9964" style="stop-color:#26264F"/>
			</linearGradient>
			<path style="fill:url(#SVGID_00000029750784804072698340000015877877739009165740_);" d="M2174.81,2815.686
				c-36.855-12.677-64.401-45.115-72.169-84.983L2049,2455.385l-448.128,16.916l-56.473,286.821
				c-7.909,40.169,13.017,80.45,49.48,95.245l191.979,77.896c35.707,14.488,74.089,20.259,112.237,16.875l405.719-35.994
				c11.86-1.052,21.374-10.721,22.754-23.124c1.38-12.404-5.755-24.112-17.065-28.002L2174.81,2815.686z"/>
			<g>
				<g>
					
						<linearGradient id="SVGID_00000000195098384420983760000016050774720099991738_" gradientUnits="userSpaceOnUse" x1="2296.5906" y1="1032.2156" x2="2960.7947" y2="84.2433">
						<stop  offset="0" style="stop-color:#444B8C"/>
						<stop  offset="0.9964" style="stop-color:#26264F"/>
					</linearGradient>
					<path style="fill:url(#SVGID_00000000195098384420983760000016050774720099991738_);" d="M683.722,2653.585
						c-48.899,2.857-88.871-31.325-88.871-76.209V959.628c0-44.885,39.972-79.952,88.871-78.177l2308.145,83.756
						c37.396,1.357,67.695,34.187,67.695,73.186v1405.653c0,39-30.299,72.5-67.695,74.686L683.722,2653.585z"/>
					
						<linearGradient id="SVGID_00000026127280064317982560000016880327297286352813_" gradientUnits="userSpaceOnUse" x1="2008.1062" y1="1144.7727" x2="1177.2745" y2="3783.6077">
						<stop  offset="0" style="stop-color:#444B8C"/>
						<stop  offset="0.9964" style="stop-color:#26264F"/>
					</linearGradient>
					<path style="fill:url(#SVGID_00000026127280064317982560000016880327297286352813_);" d="M2991.867,998.269L683.723,919.164
						c-26.147-0.896-47.397,17.813-47.397,41.789v1258.64v355.538c0,23.977,21.25,42.214,47.397,40.74l2308.144-130.202
						c20.041-1.13,36.252-19.003,36.252-39.922v-321.24V1037.389C3028.118,1016.47,3011.908,998.956,2991.867,998.269z"/>
					<path style="fill:#FFFFFF;" d="M683.722,2478.332c-10.181,0.5-18.471-6.685-18.471-16.013V961.877
						c0-9.327,8.29-16.646,18.471-16.311l2308.145,75.847c7.816,0.257,14.17,7.108,14.17,15.269v1312.915
						c0,8.161-6.354,15.115-14.17,15.499L683.722,2478.332z"/>
				</g>
			</g>
		</g>
		<g>
			<path style="fill:#D8DEE8;" d="M1435.766,1112.775c0-22.194-20.223-40.546-42.87-40.992l-521.839-10.259
				c-23.901-0.471-44.336,17.686-44.336,40.555v511.962c0,22.869,19.474,41.228,43.375,41.006l522.772-4.847
				c22.648-0.21,42.899-18.383,42.899-40.577V1112.775z"/>
			<path style="fill:#D8DEE8;" d="M2130.351,1125.194c0-21.413-15.174-39.109-36.253-39.524l-484.465-9.538
				c-22.202-0.437-40.425,17.075-40.425,39.115v493.408c0,22.04,19.178,39.726,41.38,39.52l482.95-4.486
				c21.079-0.196,36.813-17.703,36.813-39.116V1125.194z"/>
			<path style="fill:#D8DEE8;" d="M1435.766,1831.642c0-22.194-20.223-39.871-42.87-39.5l-521.839,8.547
				c-23.901,0.392-44.336,19.256-44.336,42.125v511.962c0,22.869,19.474,40.527,43.375,39.442l522.438-23.644
				c22.648-1.028,43.233-19.891,43.233-42.085V1831.642z"/>
			<path style="fill:#D8DEE8;" d="M2123.508,1818.912c0-21.421-15.119-38.528-36.213-38.182l-484.643,7.95
				c-22.218,0.364-40.287,18.538-40.287,40.586v493.584c0,22.048,19.509,39.054,41.726,38.046l483.586-21.984
				c21.093-0.957,35.831-19.031,35.831-40.452V1818.912z"/>
			<g>
				<path style="fill:#D8DEE8;" d="M2835.201,1188.409c0,18.568-14.22,33.433-31.824,33.202l-462.218-6.076
					c-18.528-0.243-32.885-15.925-32.885-35.022v-42.57c0-19.097,14.37-34.291,32.898-33.939l462.531,8.789
					c17.604,0.334,31.498,15.657,31.498,34.225V1188.409z"/>
				<path style="fill:#D8DEE8;" d="M2624.293,1292.507c0,12.871-9.986,23.226-22.318,23.128l-272.029-2.166
					c-12.71-0.101-23.026-10.794-23.026-23.884l0,0c0-13.089,10.316-23.593,23.026-23.46l272.029,2.843
					C2614.308,1269.098,2624.293,1279.636,2624.293,1292.507L2624.293,1292.507z"/>
				<path style="fill:#D8DEE8;" d="M2624.293,1382.4c0,12.871-9.986,23.274-22.318,23.235l-272.029-0.86
					c-12.71-0.04-23.026-10.684-23.026-23.773l0,0c0-13.089,10.316-23.642,23.026-23.57l272.029,1.537
					C2614.308,1359.038,2624.293,1369.529,2624.293,1382.4L2624.293,1382.4z"/>
				<path style="fill:#D8DEE8;" d="M2624.293,1472.293c0,12.871-9.986,23.322-22.318,23.342l-272.029,0.446
					c-12.71,0.021-23.026-10.573-23.026-23.663l0,0c0-13.089,10.316-23.692,23.026-23.681l272.029,0.231
					C2614.308,1448.979,2624.293,1459.421,2624.293,1472.293L2624.293,1472.293z"/>
			</g>
			<g>
				<g>
					
						<linearGradient id="SVGID_00000023990480441738096010000005789702125049014187_" gradientUnits="userSpaceOnUse" x1="1723.0328" y1="1430.8866" x2="1785.4539" y2="1430.8866">
						<stop  offset="0" style="stop-color:#444B8C"/>
						<stop  offset="0.9964" style="stop-color:#26264F"/>
					</linearGradient>
					<path style="fill:url(#SVGID_00000023990480441738096010000005789702125049014187_);" d="M1726.892,1332.676
						c-7.598,5.498-2.389,23.493,2.095,41.823c7.79,31.841,20.486,97.89,16.3,146.89c-0.447,5.233,3.755,9.678,9.008,9.561
						c0.115-0.003,0.229-0.005,0.344-0.008c5.565-0.124,9.601-5.267,8.505-10.714c-3.876-19.264-15.214-47.205-9.571-70.455
						c9.467-39.008,36.14-51.087,31.298-76.059C1779.422,1345.608,1738.522,1324.26,1726.892,1332.676z"/>
					
						<linearGradient id="SVGID_00000000901570624442599200000012871890198882891403_" gradientUnits="userSpaceOnUse" x1="1852.103" y1="1316.9374" x2="1851.0605" y2="1482.7073">
						<stop  offset="0" style="stop-color:#444B8C"/>
						<stop  offset="0.9964" style="stop-color:#26264F"/>
					</linearGradient>
					<path style="fill:url(#SVGID_00000000901570624442599200000012871890198882891403_);" d="M1980.409,1487.104
						c-1.095-10.224-25.089-8.5-55.26-22.717c-26.233-12.361-29.488-23.731-51.06-46.88c-1.088-1.167-14.802-16.651-33.188-30.881
						c-21.783-16.861-24.301-12.061-39.379-24.289c-28.842-23.39-27.104-46.958-56.55-61.406
						c-4.019-1.972-16.778-8.233-20.885-4.022c-5.645,5.788,8.094,29.239,21.421,45.106c17.411,20.73,33.839,28.164,46.651,36.943
						c57.863,39.644,35.568,102.596,87.888,128.793c28.292,14.166,57.184,6.88,63.742,5.029
						C1959.637,1508.304,1981.478,1497.086,1980.409,1487.104z"/>
					
						<linearGradient id="SVGID_00000149383186060483098690000013961569878482846383_" gradientUnits="userSpaceOnUse" x1="1953.1647" y1="1329.8389" x2="1848.1404" y2="1506.9691">
						<stop  offset="0" style="stop-color:#AA80F9"/>
						<stop  offset="0.9964" style="stop-color:#6165D7"/>
					</linearGradient>
					<path style="fill:url(#SVGID_00000149383186060483098690000013961569878482846383_);" d="M1721.991,1292.708
						c-3.666,1.831-3.639,12.331-3.585,33.332c0.039,15.39,0.255,23.085,2.537,28.352c6.877,15.871,23.152,13.226,50.379,28.646
						c3.971,2.249,35.569,20.614,55.979,55.151c10.029,16.97,14.775,32.112,14.775,32.112c8.948,24.732,7.685,37.172,20.938,50.983
						c8.636,8.999,22.631,16.18,107.894,17.237c77.067,0.956,115.371,1.431,118.321-10.71c3.864-15.901-53.057-42.764-74.989-51.771
						c-22.037-9.051-33.075-13.584-45.887-11.331c-33.077,5.816-45.16,43.472-66.185,39.047c-6.047-1.273-8.976-5.213-19.583-18.957
						c-14.206-18.407-29.893-35.754-43.044-55.019c-20.662-30.27-37.083-51.061-58.499-78.177
						C1733.52,1291.434,1724.919,1291.246,1721.991,1292.708z"/>
					
						<linearGradient id="SVGID_00000075872754144366177510000013852588108687095222_" gradientUnits="userSpaceOnUse" x1="1953.1647" y1="1329.8389" x2="1848.1404" y2="1506.9691">
						<stop  offset="0" style="stop-color:#FF9085"/>
						<stop  offset="1" style="stop-color:#FB6FBB"/>
					</linearGradient>
					<path style="fill:url(#SVGID_00000075872754144366177510000013852588108687095222_);" d="M1721.991,1292.708
						c-3.666,1.831-3.639,12.331-3.585,33.332c0.039,15.39,0.255,23.085,2.537,28.352c6.877,15.871,23.152,13.226,50.379,28.646
						c3.971,2.249,35.569,20.614,55.979,55.151c10.029,16.97,14.775,32.112,14.775,32.112c8.948,24.732,7.685,37.172,20.938,50.983
						c8.636,8.999,22.631,16.18,107.894,17.237c77.067,0.956,115.371,1.431,118.321-10.71c3.864-15.901-53.057-42.764-74.989-51.771
						c-22.037-9.051-33.075-13.584-45.887-11.331c-33.077,5.816-45.16,43.472-66.185,39.047c-6.047-1.273-8.976-5.213-19.583-18.957
						c-14.206-18.407-29.893-35.754-43.044-55.019c-20.662-30.27-37.083-51.061-58.499-78.177
						C1733.52,1291.434,1724.919,1291.246,1721.991,1292.708z"/>
				</g>
				<g>
					
						<linearGradient id="SVGID_00000060739155621370358710000017229740947065714602_" gradientUnits="userSpaceOnUse" x1="1679.6917" y1="1453.4921" x2="1742.3883" y2="1453.4921">
						<stop  offset="0" style="stop-color:#444B8C"/>
						<stop  offset="0.9964" style="stop-color:#26264F"/>
					</linearGradient>
					<path style="fill:url(#SVGID_00000060739155621370358710000017229740947065714602_);" d="M1683.568,1355.085
						c-7.631,5.519-2.4,23.547,2.105,41.912c7.824,31.902,20.577,98.082,16.372,147.196c-0.449,5.245,3.771,9.695,9.047,9.572
						c0.115-0.003,0.231-0.005,0.346-0.008c5.589-0.13,9.643-5.29,8.543-10.748c-3.893-19.301-15.281-47.291-9.613-70.599
						c9.509-39.105,36.3-51.241,31.436-76.263C1736.329,1367.985,1695.249,1346.637,1683.568,1355.085z"/>
					
						<linearGradient id="SVGID_00000054243630792039958190000007694160799327961768_" gradientUnits="userSpaceOnUse" x1="1809.3269" y1="1339.2902" x2="1808.2832" y2="1505.2582">
						<stop  offset="0" style="stop-color:#444B8C"/>
						<stop  offset="0.9964" style="stop-color:#26264F"/>
					</linearGradient>
					<path style="fill:url(#SVGID_00000054243630792039958190000007694160799327961768_);" d="M1938.198,1509.559
						c-1.1-10.245-25.198-8.489-55.501-22.702c-26.348-12.358-29.617-23.749-51.284-46.923c-1.092-1.168-14.867-16.67-33.333-30.911
						c-21.878-16.873-24.407-12.06-39.552-24.297c-28.969-23.409-27.224-47.03-56.8-61.477c-4.036-1.972-16.852-8.232-20.977-4.007
						c-5.67,5.807,8.13,29.295,21.516,45.182c17.488,20.755,33.988,28.188,46.857,36.97c58.118,39.664,35.725,102.78,88.275,128.975
						c28.416,14.164,57.435,6.829,64.021,4.965C1917.336,1530.829,1939.272,1519.561,1938.198,1509.559z"/>
					
						<linearGradient id="SVGID_00000026143576734518979170000005788156325511916733_" gradientUnits="userSpaceOnUse" x1="1854.9734" y1="1457.5787" x2="1804.3026" y2="1626.3074">
						<stop  offset="0" style="stop-color:#FF9085"/>
						<stop  offset="1" style="stop-color:#FB6FBB"/>
					</linearGradient>
					<path style="fill:url(#SVGID_00000026143576734518979170000005788156325511916733_);" d="M1678.646,1315.034
						c-3.682,1.839-3.655,12.363-3.601,33.409c0.04,15.424,0.255,23.135,2.548,28.412c6.907,15.898,23.254,13.229,50.601,28.651
						c3.988,2.249,35.726,20.619,56.226,55.208c10.073,16.996,14.84,32.165,14.84,32.165c8.987,24.776,7.719,37.245,21.03,51.07
						c8.674,9.009,22.73,16.189,108.366,17.149c77.402,0.868,115.873,1.299,118.836-10.871c3.881-15.94-53.288-42.795-75.315-51.796
						c-22.133-9.045-33.219-13.575-46.087-11.302c-33.221,5.867-45.358,43.62-66.475,39.208c-6.073-1.269-9.016-5.214-19.669-18.975
						c-14.268-18.431-30.025-35.798-43.233-55.09c-20.753-30.312-37.246-51.13-58.757-78.281
						C1690.226,1313.744,1681.587,1313.565,1678.646,1315.034z"/>
				</g>
			</g>
			<path style="fill:#F4F7FA;" d="M1394.706,1141.386c0,10.563-9.96,18.996-20.743,18.831l-111.791-1.678
				c-10.915-0.167-21.438-8.927-21.438-19.57v-0.785c0-10.643,9.905-19.118,20.82-18.93l111.885,1.893
				c10.783,0.185,21.267,8.897,21.267,19.459V1141.386z"/>
			<path style="fill:#F4F7FA;" d="M2072.184,1152.498c0,10.202-5.771,18.344-15.828,18.19l-100.936-1.569
				c-10.175-0.155-16.678-8.613-16.678-18.888v-0.758c0-10.275,7.696-18.462,17.87-18.287l100.024,1.77
				c10.057,0.173,15.549,8.587,15.549,18.788V1152.498z"/>
			<path style="fill:#F4F7FA;" d="M1394.706,1851.021c0,10.563-9.96,19.33-20.743,19.549l-111.791,2.252
				c-10.915,0.222-21.438-8.21-21.438-18.853v-0.785c0-10.643,9.905-19.435,20.82-19.635l111.885-2.048
				c10.783-0.198,21.267,8.178,21.267,18.74V1851.021z"/>
			<path style="fill:#F4F7FA;" d="M2072.184,1879.061c0,10.204-9.15,18.675-19.213,18.901l-102.689,2.311
				c-10.181,0.229-18.384-7.913-18.384-18.191v-0.758c0-10.278,7.7-18.778,17.881-18.986l103.471-2.119
				c10.063-0.206,18.933,7.886,18.933,18.09V1879.061z"/>
			<g>
				
					<linearGradient id="SVGID_00000085226767851079752670000016886776209492059558_" gradientUnits="userSpaceOnUse" x1="1231.6133" y1="1218.0419" x2="993.0951" y2="1637.4445">
					<stop  offset="0" style="stop-color:#FF9085"/>
					<stop  offset="1" style="stop-color:#FB6FBB"/>
				</linearGradient>
				<path style="fill:url(#SVGID_00000085226767851079752670000016886776209492059558_);" d="M1040.183,1184.608l28.512-5.621
					c0,0,28.133,25.46,58.37,23.334c30.147-2.12,61.499-20.83,67.246-19.829c2.985,0.52,6.799-0.224,9.722,1.808
					c5.386,3.744,4.66,12.58,4.459,15.954c-2.371,39.806,8.271,47.185-1.81,76.093c-8.037,23.049-22.053,39.164-32.78,49.048
					c16.867,11.318,37.202,28.446,53.776,53.559c52.41,79.413,22.206,171.018,16.862,186.396
					c-17.369-3.516-43.755-7.313-75.777-5.538c-42.554,2.359-59.331,12.563-90.66,13.338c-24.415,0.604-59.624-4.469-103.296-31.762
					c0.817-34.119,8.015-114.354,68.936-179.537c14.424-15.433,29.552-27.542,43.875-37.054
					c-27.221-19.033-36.395-38.63-40.007-49.941c-1.388-4.346-2.9-10.428-4.86-36.171
					C1041.037,1216.186,1040.421,1197.575,1040.183,1184.608z"/>
				
					<linearGradient id="SVGID_00000129166084581841374180000009388172182007733917_" gradientUnits="userSpaceOnUse" x1="1237.6134" y1="1221.3302" x2="1002.5257" y2="1634.7007">
					<stop  offset="0" style="stop-color:#FF9085"/>
					<stop  offset="1" style="stop-color:#FB6FBB"/>
				</linearGradient>
				<path style="opacity:0.3;fill:url(#SVGID_00000129166084581841374180000009388172182007733917_);" d="M1227.678,1378.955
					c-16.574-25.114-36.91-42.242-53.776-53.559c10.727-9.884,24.742-25.999,32.78-49.048c3.722-10.673,4.618-18.408,4.389-25.923
					c-15.375,13.433-34.412,22.504-55.218,25.634c-4.741,0.714-51.383,6.975-87.798-24.714
					c-11.827-10.292-20.868-23.109-26.863-37.381c0.379,7.566,0.882,15.836,1.559,24.724c1.96,25.743,3.472,31.825,4.86,36.171
					c3.613,11.311,12.787,30.908,40.007,49.941c-10.809,7.177-22.076,15.837-33.153,26.286c18.562,2.934,31.081,9.571,39.854,16.861
					c35.585,29.569,28.068,85.303,59.999,93.963c22.124,6.001,36.293-17.957,55.069-13.338
					c16.399,4.034,32.267,28.888,37.78,108.706C1255.688,1529.297,1274.15,1449.37,1227.678,1378.955z"/>
				
					<linearGradient id="SVGID_00000077307696870657835470000016092485234821188019_" gradientUnits="userSpaceOnUse" x1="1138.5718" y1="1239.536" x2="1128.9215" y2="1335.0741">
					<stop  offset="0" style="stop-color:#311944"/>
					<stop  offset="1" style="stop-color:#A03976"/>
				</linearGradient>
				<path style="fill:url(#SVGID_00000077307696870657835470000016092485234821188019_);" d="M1079.867,1317.41l0.349,10.854
					c0,0,69.304,12.971,100.006,2.246l-0.159-9.597C1180.062,1320.913,1091.508,1323.873,1079.867,1317.41z"/>
			</g>
			<g>
				
					<linearGradient id="SVGID_00000016782587380904943240000018048483219617010058_" gradientUnits="userSpaceOnUse" x1="935.4325" y1="2192.9231" x2="1319.7526" y2="2192.9231">
					<stop  offset="0" style="stop-color:#FF9085"/>
					<stop  offset="1" style="stop-color:#FB6FBB"/>
				</linearGradient>
				<path style="fill:url(#SVGID_00000016782587380904943240000018048483219617010058_);" d="M1312.066,2167.361
					c-13.865-93.365-136.088-94.285-182.648-91.207c-46.771-0.265-171.646,8.183-186.006,104.13
					c-9.628,64.324-8.913,97.476-6.241,114.076c1.539,9.56,10.145,16.551,20.279,16.131l167.274-6.936l9.388-0.389l164.4-6.817
					c9.789-0.406,18.085-7.962,19.568-17.467C1320.652,2262.385,1321.34,2229.808,1312.066,2167.361z"/>
				<g>
					
						<linearGradient id="SVGID_00000023990021291139376610000015090487357021704079_" gradientUnits="userSpaceOnUse" x1="1022.071" y1="2123.6653" x2="1138.0862" y2="2123.6653">
						<stop  offset="0" style="stop-color:#311944"/>
						<stop  offset="1" style="stop-color:#A03976"/>
					</linearGradient>
					<path style="fill:url(#SVGID_00000023990021291139376610000015090487357021704079_);" d="M1062.514,2305.289
						c0,0-33.919-350.056,75.572-352.621v-11.928c0,0-43.566-10.296-86.991,58.579c-43.612,69.171-25.138,307.818-25.138,307.818
						L1062.514,2305.289z"/>
					
						<linearGradient id="SVGID_00000150072357990126272070000007791450441274248090_" gradientUnits="userSpaceOnUse" x1="-116.4682" y1="2119.8604" x2="-3.1701" y2="2119.8604" gradientTransform="matrix(-1 0 0 1 1121.2297 0)">
						<stop  offset="0" style="stop-color:#311944"/>
						<stop  offset="1" style="stop-color:#A03976"/>
					</linearGradient>
					<path style="fill:url(#SVGID_00000150072357990126272070000007791450441274248090_);" d="M1197.972,2299.617
						c0,0,35.919-349.369-73.572-346.692v-11.934c0,0,41.897-12.231,84.825,54.125c42.746,66.075,24.683,303.342,24.683,303.342
						L1197.972,2299.617z"/>
				</g>
				
					<linearGradient id="SVGID_00000098179036705242543720000014632993216778064302_" gradientUnits="userSpaceOnUse" x1="1129.2356" y1="2060.4333" x2="1105.3773" y2="2337.1897">
					<stop  offset="0" style="stop-color:#FF9085"/>
					<stop  offset="1" style="stop-color:#FB6FBB"/>
				</linearGradient>
				<path style="fill:url(#SVGID_00000098179036705242543720000014632993216778064302_);" d="M1175.724,2102.245
					c0,24.843-22.227,45.722-47.917,46.591l-4.013,0.147c-25.765,0.871-47.296-18.626-47.296-43.591v-14.132
					c0-24.964,20.804-45.814,46.57-46.552l4.806-0.138c25.69-0.736,47.85,18.768,47.85,43.611V2102.245z"/>
				
					<linearGradient id="SVGID_00000181791520236627588980000002130387378943804033_" gradientUnits="userSpaceOnUse" x1="1129.2356" y1="2060.4333" x2="1105.3773" y2="2337.1897">
					<stop  offset="0" style="stop-color:#FF9085"/>
					<stop  offset="1" style="stop-color:#FB6FBB"/>
				</linearGradient>
				<path style="opacity:0.4;fill:url(#SVGID_00000181791520236627588980000002130387378943804033_);" d="M1175.724,2102.245
					c0,24.843-22.227,45.722-47.917,46.591l-4.013,0.147c-25.765,0.871-47.296-18.626-47.296-43.591v-14.132
					c0-24.964,20.804-45.814,46.57-46.552l4.806-0.138c25.69-0.736,47.85,18.768,47.85,43.611V2102.245z"/>
				
					<linearGradient id="SVGID_00000016786331656911518520000004596561573963648140_" gradientUnits="userSpaceOnUse" x1="1130.1074" y1="2118.8147" x2="1124.8148" y2="2180.209">
					<stop  offset="0" style="stop-color:#311944"/>
					<stop  offset="1" style="stop-color:#A03976"/>
				</linearGradient>
				<path style="fill:url(#SVGID_00000016786331656911518520000004596561573963648140_);" d="M1141.4,2126.493
					c0,6.406-5.362,11.778-11.981,11.999c-6.623,0.221-11.995-4.8-11.995-11.214c0-6.414,5.372-11.786,11.995-11.999
					C1136.037,2115.065,1141.4,2120.086,1141.4,2126.493z"/>
			</g>
			<g>
				
					<linearGradient id="SVGID_00000103232344725952211420000005857594058156763305_" gradientUnits="userSpaceOnUse" x1="1705.7112" y1="2129.9651" x2="2023.8405" y2="2129.9651">
					<stop  offset="0" style="stop-color:#FF9085"/>
					<stop  offset="1" style="stop-color:#FB6FBB"/>
				</linearGradient>
				<path style="fill:url(#SVGID_00000103232344725952211420000005857594058156763305_);" d="M2023.84,2237.22
					c0,0-34.689-106.464-33.72-165.249c0.968-58.778-60.092-108.358-60.092-108.358l-52.876,1.028v-0.151l-10.221,0.34
					l-10.309,0.191v0.152l-55.175,1.74c0,0-63.41,53.448-62.417,112.933c0.994,59.479-33.32,170.097-33.32,170.097
					s41.42,44.891,150.911,45.837v0.534c0,0.032,6.45-0.281,10.316-0.528c3.834-0.081,6.792-0.175,10.213-0.354v-0.522
					C1979.8,2285.11,2023.84,2237.22,2023.84,2237.22z"/>
				
					<linearGradient id="SVGID_00000089551359301880966260000002650497554375952547_" gradientUnits="userSpaceOnUse" x1="1774.5042" y1="1962.9185" x2="1952.4276" y2="1962.9185">
					<stop  offset="0" style="stop-color:#311944"/>
					<stop  offset="1" style="stop-color:#A03976"/>
				</linearGradient>
				<polygon style="fill:url(#SVGID_00000089551359301880966260000002650497554375952547_);" points="1952.428,1979.556 
					1774.504,1984.22 1774.504,1945.937 1952.428,1941.617 				"/>
				<g>
					<g>
						
							<linearGradient id="SVGID_00000059294407223941158720000008603546987310993286_" gradientUnits="userSpaceOnUse" x1="1818.9851" y1="1962.9561" x2="1901.1035" y2="1962.9561">
							<stop  offset="0" style="stop-color:#FFC444"/>
							<stop  offset="0.0985" style="stop-color:#FEBC46"/>
							<stop  offset="0.9964" style="stop-color:#F36F56"/>
						</linearGradient>
						<path style="fill:url(#SVGID_00000059294407223941158720000008603546987310993286_);" d="M1901.104,1977.188
							c0,7.793-6.878,14.281-14.628,14.491l-52.28,1.384c-7.797,0.211-15.21-5.962-15.21-13.786v-30.694
							c0-7.824,7.113-14.317,14.91-14.505l52.186-1.231c7.75-0.186,15.022,5.979,15.022,13.772V1977.188z M1894.26,1946.98
							c0-2.169-2.363-3.882-4.519-3.829l-50.259,1.247c-2.168,0.053-3.389,1.859-3.389,4.034v26.821
							c0,2.175,0.914,3.894,3.081,3.837l50.989-1.339c2.156-0.057,4.097-1.861,4.097-4.03V1946.98z"/>
					</g>
					
						<linearGradient id="SVGID_00000158731188429767681090000012738649055521272234_" gradientUnits="userSpaceOnUse" x1="1873.7307" y1="1965.7638" x2="1897.6819" y2="1965.7638">
						<stop  offset="0" style="stop-color:#FFC444"/>
						<stop  offset="0.0985" style="stop-color:#FEBC46"/>
						<stop  offset="0.9964" style="stop-color:#F36F56"/>
					</linearGradient>
					<path style="fill:url(#SVGID_00000158731188429767681090000012738649055521272234_);" d="M1897.682,1967.243
						c0,1.875-2.118,3.436-3.982,3.485l-16.959,0.45c-1.868,0.048-3.01-1.435-3.01-3.312v-3.59c0-1.878,0.838-3.437,2.706-3.484
						l17.601-0.442c1.864-0.047,3.644,1.433,3.644,3.309V1967.243z"/>
				</g>
			</g>
		</g>
		<g>
			
				<linearGradient id="SVGID_00000066487733042188738450000014453090488509948072_" gradientUnits="userSpaceOnUse" x1="682.3826" y1="3032.6631" x2="701.4258" y2="3275.0308" gradientTransform="matrix(-1 0 0 1 1996.6521 0)">
				<stop  offset="0.0036" style="stop-color:#26264F"/>
				<stop  offset="1" style="stop-color:#444B8C"/>
			</linearGradient>
			<path style="fill:url(#SVGID_00000066487733042188738450000014453090488509948072_);" d="M1277.129,3153.537
				c0,0,76.657,34.841,77.908,40.401c1.252,5.562-49.298-1.864-69.933-1.063c-20.636,0.802-37.612-5.297-35.744-14.037
				c1.868-8.742,9.091-30.726,9.091-30.726L1277.129,3153.537z"/>
			
				<linearGradient id="SVGID_00000155108153964003262650000011356925965903883196_" gradientUnits="userSpaceOnUse" x1="731.5447" y1="3167.5979" x2="728.0826" y2="2916.5808" gradientTransform="matrix(-1 0 0 1 1996.6521 0)">
				<stop  offset="0" style="stop-color:#AB316D"/>
				<stop  offset="1" style="stop-color:#792D3D"/>
			</linearGradient>
			<path style="fill:url(#SVGID_00000155108153964003262650000011356925965903883196_);" d="M1279.934,3125.263l-4.663,34.513
				c0,0-12.135,4.32-20.287-0.788l-3.478-37.853L1279.934,3125.263z"/>
			
				<linearGradient id="SVGID_00000175293081804690108660000003835797415469440935_" gradientUnits="userSpaceOnUse" x1="1042.2524" y1="3004.3894" x2="1061.2954" y2="3246.7542" gradientTransform="matrix(-1 0 0 1 1996.6521 0)">
				<stop  offset="0.0036" style="stop-color:#26264F"/>
				<stop  offset="1" style="stop-color:#444B8C"/>
			</linearGradient>
			<path style="fill:url(#SVGID_00000175293081804690108660000003835797415469440935_);" d="M918.933,3126.091l-8.916,14.314
				c-2.495,4.002-3.237,8.822-2.041,13.384c3.117,11.903,9.345,35.101,12.059,41.149c3.699,8.239,53.305,13.134,53.305,13.134
				s4.424-6.225-5.876-13.745c-10.299-7.516-16.919-8.7-20.555-19.796c-3.633-11.095-6.059-42.479-6.059-42.479L918.933,3126.091z"
				/>
			
				<linearGradient id="SVGID_00000128461685781458303400000008300986754529525643_" gradientUnits="userSpaceOnUse" x1="1061.349" y1="3163.0486" x2="1057.8868" y2="2912.0271" gradientTransform="matrix(-1 0 0 1 1996.6521 0)">
				<stop  offset="0" style="stop-color:#AB316D"/>
				<stop  offset="1" style="stop-color:#792D3D"/>
			</linearGradient>
			<path style="fill:url(#SVGID_00000128461685781458303400000008300986754529525643_);" d="M956.046,3089.716
				c-3.257,2.596-19.189,50.955-19.189,50.955s-5.157,6.595-14.955-3.137c-9.796-9.733-4.433-4.366-4.433-4.366l1.836-47.563
				L956.046,3089.716z"/>
			
				<linearGradient id="SVGID_00000103964595801913099280000000435251811439625151_" gradientUnits="userSpaceOnUse" x1="45.3754" y1="2760.9529" x2="230.972" y2="2760.9529" gradientTransform="matrix(-1 0 0 1 1370.3894 0)">
				<stop  offset="0" style="stop-color:#311944"/>
				<stop  offset="1" style="stop-color:#6B3976"/>
			</linearGradient>
			<path style="fill:url(#SVGID_00000103964595801913099280000000435251811439625151_);" d="M1322.111,2431.868
				c4.044,102.952,4.208,214.805-1.715,334.298c-6.669,134.559-20.073,258.926-36.964,371.663
				c-6.279,0.201-12.878,0.234-19.771,0.04c-4.653-0.129-9.164-0.355-13.522-0.656c-8.765-23.377-19.127-54.119-28.404-90.838
				c-9.754-38.61-15.639-73.244-19.832-106.362c-14.762-116.608,2.538-126.781-9.442-213.2
				c-10.609-76.536-25.699-79.524-43.41-188.188c-19.218-117.905-4.911-135.593,2.045-141.983
				C1180.714,2369.44,1250.285,2387.959,1322.111,2431.868z"/>
			
				<linearGradient id="SVGID_00000018921270598564264150000017709338609487430287_" gradientUnits="userSpaceOnUse" x1="58.2088" y1="2760.9607" x2="230.9715" y2="2760.9607" gradientTransform="matrix(-1 0 0 1 1370.3894 0)">
				<stop  offset="0.0036" style="stop-color:#26264F"/>
				<stop  offset="1" style="stop-color:#444B8C"/>
			</linearGradient>
			<path style="opacity:0.3;fill:url(#SVGID_00000018921270598564264150000017709338609487430287_);" d="M1151.097,2396.643
				c28.249-25.947,92.851-10.239,161.084,29.362c-78.496,84.807-87.052,139.823-77.643,175.52
				c10.635,40.345,42.97,51.964,42.847,96.081c-0.151,54.212-49.08,68.574-48.041,125.942c0.689,37.934,22.189,37.541,27.266,84.394
				c6.008,55.438-22.081,74.539-12.983,115.556c3.915,17.646,15.086,40.704,46.901,64.457c-2.293,16.844-4.645,33.517-7.097,49.876
				c-6.277,0.197-12.876,0.233-19.769,0.037c-4.653-0.128-9.165-0.354-13.521-0.655c-8.766-23.377-19.128-54.118-28.405-90.837
				c-9.754-38.611-15.639-73.244-19.832-106.364c-14.761-116.608,2.538-126.781-9.442-213.2
				c-10.609-76.536-25.699-79.526-43.41-188.189C1129.834,2420.719,1144.14,2403.031,1151.097,2396.643z"/>
			
				<linearGradient id="SVGID_00000160185630337633694260000011446067968387355532_" gradientUnits="userSpaceOnUse" x1="96.9009" y1="2742.6584" x2="470.5275" y2="2742.6584" gradientTransform="matrix(-1 0 0 1 1370.3894 0)">
				<stop  offset="0" style="stop-color:#311944"/>
				<stop  offset="1" style="stop-color:#6B3976"/>
			</linearGradient>
			<path style="fill:url(#SVGID_00000160185630337633694260000011446067968387355532_);" d="M1273.489,2430.138
				c-67.588,98.895-140.489,221.974-205.683,369.295c-49.268,111.33-85.002,215.86-111.236,309.019
				c-3.55,1.644-11.924,4.923-22.625,3.508c-14.596-1.93-23.344-11.247-25.63-13.847c-10.678-66.782-9.501-123.341-5.876-164.161
				c2.32-26.135,6.426-69.658,23.086-123.388c18.658-60.186,31.487-63.568,55.83-127.242
				c25.267-66.091,19.147-82.584,43.343-165.292c9.939-33.977,26.579-84.54,54.035-145.02
				C1143.651,2392.051,1208.57,2411.095,1273.489,2430.138z"/>
			
				<linearGradient id="SVGID_00000026873546297297275550000014224758348701388469_" gradientUnits="userSpaceOnUse" x1="523.3882" y1="1626.1306" x2="420.9236" y2="1933.5254" gradientTransform="matrix(0.9998 0.0218 -0.0218 0.9998 1160.1385 0.1062)">
				<stop  offset="0" style="stop-color:#AB316D"/>
				<stop  offset="1" style="stop-color:#792D3D"/>
			</linearGradient>
			<path style="fill:url(#SVGID_00000026873546297297275550000014224758348701388469_);" d="M1593.174,1726.173
				c0,0,13.114-15.697,21.473-27.391c8.358-11.695,46.898-44.225,46.898-44.225s2.766,5.356-5.558,13.647
				c-8.325,8.292-25.771,22.433-21.966,28.658c3.805,6.227,14.775,11.881,6.521,23.301c-8.255,11.42-21.996,3.199-29.311,12.344
				c-7.317,9.145-14.824,19.131-14.824,19.131L1593.174,1726.173z"/>
			
				<linearGradient id="SVGID_00000168802004850192162040000012291197401932496528_" gradientUnits="userSpaceOnUse" x1="-86.2225" y1="1888.6405" x2="89.0389" y2="2615.3037" gradientTransform="matrix(-0.9998 -0.0218 -0.0218 0.9998 1338.4872 3.95)">
				<stop  offset="0" style="stop-color:#AA80F9"/>
				<stop  offset="0.9964" style="stop-color:#6165D7"/>
			</linearGradient>
			<path style="fill:url(#SVGID_00000168802004850192162040000012291197401932496528_);" d="M1591.331,1709.684
				c8.751,10.979,17.502,21.959,26.253,32.937c-11.188,48.409-35.041,121.357-90.497,192.217
				c-58.78,75.106-184.156,187.589-262.205,150.714c-47.572-22.475-111.796-99.603-88.719-136.788
				c22.186-35.75,118.198-18.85,184.137-33.745C1424.935,1900.42,1508.824,1853.377,1591.331,1709.684z"/>
			
				<linearGradient id="SVGID_00000152235044737230927990000013826128487116382863_" gradientUnits="userSpaceOnUse" x1="178.4882" y1="2132.615" x2="322.7953" y2="2132.615" gradientTransform="matrix(-0.9998 -0.0218 -0.0218 0.9998 1338.4872 3.95)">
				<stop  offset="0" style="stop-color:#AA80F9"/>
				<stop  offset="0.9964" style="stop-color:#6165D7"/>
			</linearGradient>
			<path style="fill:url(#SVGID_00000152235044737230927990000013826128487116382863_);" d="M998.159,1995.402
				c0,0-51.142,174.068-19.459,241.045c31.683,66.976,132.715-6.576,132.715-6.576L998.159,1995.402z"/>
			
				<linearGradient id="SVGID_00000178203982288765251030000010089338527239744653_" gradientUnits="userSpaceOnUse" x1="59.6997" y1="1853.4463" x2="234.9608" y2="2580.1082" gradientTransform="matrix(-0.9998 -0.0218 -0.0218 0.9998 1338.4872 3.95)">
				<stop  offset="0" style="stop-color:#AA80F9"/>
				<stop  offset="0.9964" style="stop-color:#6165D7"/>
			</linearGradient>
			<path style="fill:url(#SVGID_00000178203982288765251030000010089338527239744653_);" d="M1147.729,1930.828
				c65.694-1.195,116.29,0.95,144.261,30.147c29.543,30.84-1.72,64.248,3.117,143.339c7.404,121.086,83.782,152.297,86.903,275.045
				c1.053,41.359-6.675,74.976-12.548,95.195c-17.362,20.682-45.677,49.787-87.048,73.738
				c-60.205,34.854-94.523,27.8-180.362,49.293c-140.408,35.156-153.818,80.377-222.775,67.278
				c-69.691-13.238-129.775-73.439-121.658-105.602c4.862-19.261,32.939-13.163,66.047-41.981
				c42.671-37.14,27.326-73.815,60.028-114.013c46.973-57.739,109.847-20.445,149.895-70.501
				c40.509-50.635,27.099-152.446-4.897-208.479c-20.898-36.598-29.261-79.136-46.889-117.417c-1.465-3.18-3.132-8.379-2.208-14.814
				c3.533-24.604,44.946-37.089,76.306-46.226C1103.731,1931.892,1142.326,1930.925,1147.729,1930.828z"/>
			
				<linearGradient id="SVGID_00000058564113665349328410000007588841891130820791_" gradientUnits="userSpaceOnUse" x1="-1148.9648" y1="1874.3098" x2="-1091.9694" y2="1964.9003" gradientTransform="matrix(-0.9998 -0.0218 -0.0218 0.9998 89.221 -23.2851)">
				<stop  offset="0" style="stop-color:#FFC444"/>
				<stop  offset="0.9964" style="stop-color:#F36F56"/>
			</linearGradient>
			<path style="fill:url(#SVGID_00000058564113665349328410000007588841891130820791_);" d="M1211.678,1929.506l-12.858-4.265
				c0,0-3.768,17.453-45.44,18.735c-23.101-0.504-37.756-13.773-37.756-13.773l-8.985,6.255c0,0,18.877,24.664,49.754,24.72
				C1196.241,1961.25,1211.678,1929.506,1211.678,1929.506z"/>
			<g>
				
					<linearGradient id="SVGID_00000013884095587734727230000007378668069529623478_" gradientUnits="userSpaceOnUse" x1="-292.0322" y1="1968.8075" x2="-358.7485" y2="2076.731" gradientTransform="matrix(-0.9519 -0.3063 -0.3063 0.9519 1475.3319 -119.7459)">
					<stop  offset="0" style="stop-color:#AB316D"/>
					<stop  offset="1" style="stop-color:#792D3D"/>
				</linearGradient>
				<path style="fill:url(#SVGID_00000013884095587734727230000007378668069529623478_);" d="M1201.132,1873.158
					c3.524-19.092-7.186-35.497-9.538-39.029c-9.851-14.781-12.205-16.708-16.473-19.034l-5.905-2.94c0,0-0.337-0.099-0.688-0.189
					c-3.705-0.95-15.967-0.204-18.396,0.551c-7.76,2.414-13.241,35.423-6.674,80.786c-0.314,3.562-0.628,7.123-0.94,10.684
					c-17.663-2.443-22.775-0.758-23.682,1.607c-1.965,5.125,10.338,35.058,27.163,40.951c21.099,7.389,50.493-11.881,52.258-18.852
					c0.715-2.821,0.589-0.398-13.78-8.718c-1.323-4.171-5.432-15.467-6.754-19.638
					C1180.771,1897.385,1198.537,1887.223,1201.132,1873.158z"/>
				
					<linearGradient id="SVGID_00000023247887448364353650000014901522792059964041_" gradientUnits="userSpaceOnUse" x1="-892.23" y1="1134.6958" x2="-952.8516" y2="1232.7601" gradientTransform="matrix(-0.8526 -0.5224 -0.5224 0.8526 1007.6583 402.2268)">
					<stop  offset="0" style="stop-color:#AB316D"/>
					<stop  offset="1" style="stop-color:#792D3D"/>
				</linearGradient>
				<path style="fill:url(#SVGID_00000023247887448364353650000014901522792059964041_);" d="M1177.057,1857.794
					c-3.896-4.441-9.569,0.584-9.042,6.74c0.526,6.157,7.071,12.009,12.745,10.266
					C1186.433,1873.056,1182.299,1863.769,1177.057,1857.794z"/>
				<path style="fill:#26264F;" d="M551.681,1656.424c85.695-48.48,227.393,17.982,291.546,99.714
					c29.81,37.979,39.58,74.652,83.765,91.686c33.589,12.95,92.157,17.602,132.75-10.236c5.114-3.507,25.86-18.441,55.496-36.157
					c13.066-7.809,25.863-14.965,41.346-12.532c3.933,0.618,17.042,2.6,22.688,13.295c4.576,8.666,2.565,20.527-2.037,28.062
					c-2.753,4.504-4.445,4.529-5.257,7.797c-2.28,9.181,12.825,18.362,10.458,22.594c-1.691,3.024-9.828-0.901-12.6,2.686
					c-3.039,3.931,5.083,10.768,5.503,23.246c5.908,7.464,6.628,21.539,2.872,38.852c-5.522,25.452-14.452,44.703-23.988,58.297
					c-45.905,65.453-78.742,112.27-127.054,128.766c-63.963,21.841-98.994-28.605-228.42-76.455
					c-177.224-65.52-241.632-19.029-292.805-81.484C442.044,1876.573,462.707,1706.758,551.681,1656.424z"/>
			</g>
			<g style="opacity:0.4;">
				
					<linearGradient id="SVGID_00000100363441552665687730000010811592857367236742_" gradientUnits="userSpaceOnUse" x1="18.5909" y1="1863.3616" x2="193.8522" y2="2590.0239" gradientTransform="matrix(-0.9998 -0.0218 -0.0218 0.9998 1338.4872 3.95)">
					<stop  offset="0" style="stop-color:#AA80F9"/>
					<stop  offset="0.9964" style="stop-color:#6165D7"/>
				</linearGradient>
				<path style="fill:url(#SVGID_00000100363441552665687730000010811592857367236742_);" d="M928.618,2560.927
					c66.065-43.896,125.869,6.315,172.572-32.357c38.462-31.849,6.923-73.375,48.536-129.429
					c45.628-61.465,108.946-45.746,124.036-91.679c15.596-47.473-46.973-79.691-48.536-145.607
					c-0.797-33.64,14.307-77.451,74.641-129.999c-3.256,19.175-6.59,42.545-4.761,72.457
					c7.405,121.086,83.782,152.297,86.904,275.045c1.053,41.359-6.675,74.976-12.548,95.195
					c-17.362,20.682-45.677,49.787-87.048,73.738c-60.205,34.854-94.523,27.8-180.362,49.293
					c-140.409,35.156-153.818,80.377-222.774,67.278c-20.086-3.815-39.359-11.544-56.445-21.365
					c20.083-3.125,35.054-9.956,46.465-17.856C899.466,2604.756,894.167,2583.817,928.618,2560.927z"/>
			</g>
		</g>
		<g>
			<defs>
				<path id="SVGID_00000047061237133114068240000001733792244854390442_" d="M2157.315,602.372
					c761.818,0,848.024,650.756,848.024,650.756h218.497v59.134l-429.52,590.719l-524.833-685.737h206.717l-292.528-342.903
					c0,0-249.855,51.633-372.251,50.199c-160.973-1.885-292.125-10.6-292.125-10.6S1580.687,602.372,2157.315,602.372z"/>
			</defs>
			<clipPath id="SVGID_00000088122755660669487410000009212911407555888282_">
				<use xlink:href="#SVGID_00000047061237133114068240000001733792244854390442_"  style="overflow:visible;"/>
			</clipPath>
			<g style="clip-path:url(#SVGID_00000088122755660669487410000009212911407555888282_);">
				
					<linearGradient id="SVGID_00000057114063237232982610000018220367547795485879_" gradientUnits="userSpaceOnUse" x1="-814.1135" y1="2222.9822" x2="168.4783" y2="1036.6288" gradientTransform="matrix(-1 0 0 1 2301.2395 0)">
					<stop  offset="0" style="stop-color:#AA80F9"/>
					<stop  offset="0.9964" style="stop-color:#6165D7"/>
				</linearGradient>
				<path style="fill:url(#SVGID_00000057114063237232982610000018220367547795485879_);" d="M1479.674,1269.016v2.473
					c22.729-29.557,63.448-70.614,87.832-94.389c0.455-1.052,1.219-2.103,1.673-3.154c13.605-31.072,31.959-64.709,55.922-98.285
					c23.801-33.669,54.052-66.812,89.314-97.327c4.222-3.958,9.102-7.451,13.616-11.192c2.305-1.824,4.632-3.71,6.97-5.534
					l3.419-2.783c1.202-0.928,2.441-1.762,3.642-2.659c4.837-3.494,9.679-7.018,14.549-10.574l3.638-2.658l3.831-2.474
					c2.534-1.67,5.066-3.339,7.599-4.978c10-6.894,20.781-12.861,31.301-19.168c5.357-3.061,10.976-5.874,16.43-8.78
					c2.695-1.453,5.456-2.937,8.216-4.359c2.825-1.329,5.682-2.69,8.474-4.019c45.069-21.673,94.23-37.348,144.656-45.973
					c6.299-0.99,12.6-1.979,18.964-2.968c6.331-0.834,12.76-1.36,19.061-2.071l9.545-1.02l9.579-0.495l9.579-0.556
					c3.182-0.155,6.331-0.464,9.546-0.402c6.364-0.031,12.728-0.093,19.126-0.123c1.558,0,3.247-0.093,4.707,0l4.254,0.216
					l8.508,0.433l8.443,0.401c0.747,0.031,1.265,0.031,2.24,0.093l8.669,0.618l11.591,0.773l8.671,0.618l1.46,0.093l0.52,0.031
					c0,0.031,3.019,0-2.047,0.093l18.737,2.628c3.084,0.464,6.201,0.742,9.286,1.391l9.188,1.763l9.189,1.731l4.579,0.866
					c1.527,0.278,3.02,0.711,4.514,1.051c6.007,1.453,12.013,2.875,17.989,4.359c3.019,0.619,5.941,1.608,8.864,2.442l8.766,2.628
					l8.768,2.504l8.573,2.999c5.714,2.04,11.43,3.834,16.982,5.998c5.519,2.226,11.071,4.452,16.56,6.709
					c43.672,18.489,82.93,42.388,116.341,69.687l6.299,5.009l5.976,5.349c3.96,3.524,8.053,6.894,11.82,10.511
					c0.162,0.124,0.292,0.31,0.453,0.433c7.339,7.234,14.775,14.036,21.366,21.518c1.753,1.824,3.475,3.679,5.162,5.534l2.599,2.721
					l2.402,2.906c3.215,3.772,6.397,7.575,9.579,11.316c0.78,0.927,1.624,1.824,2.404,2.782l2.175,2.906
					c1.494,1.948,2.954,3.896,4.416,5.782c2.857,3.896,5.974,7.482,8.539,11.501c21.691,30.917,38.218,61.834,49.453,91.329
					c11.333,29.433,18.054,57.042,21.917,81.435c0.422,3.061,0.845,6.06,1.267,9.028c0.357,2.937,0.974,5.812,1.104,8.688
					c0.487,5.75,0.975,11.223,1.462,16.448c0.325,5.318,0.325,10.419,0.552,15.211c0.097,2.412,0.26,4.761,0.292,7.018
					c-0.097,2.319-0.162,4.576-0.195,6.74c-0.063,4.359-0.13,8.471-0.193,12.305c0.032,1.082-0.163,1.639-0.228,2.381
					c-0.097,0.711-0.195,1.422-0.292,2.102c-0.13,1.36-0.325,1.175-0.455,2.412c-0.097,1.051-0.227,1.546-0.325,1.546h-213.754
					l129.882,137.117l301.944,314.426l431.858-451.543h-227.067c-0.325,0-0.682-3.71-1.039-6.616
					c-0.877-6.276-1.819-12.398-2.857-19.849c-0.585-3.71-1.103-7.172-1.722-11.161c-0.323-1.948-0.617-3.803-0.942-5.843
					c-0.292-2.009-0.583-4.174-1.005-5.936c-1.592-7.482-3.247-15.366-5.001-23.775c-0.942-4.174-1.852-8.44-2.825-12.831
					c-1.04-4.39-2.274-8.842-3.507-13.418c-2.467-9.12-4.871-18.705-7.858-28.567c-3.182-9.801-6.494-19.972-9.903-30.546
					c-1.657-5.318-3.832-10.542-5.846-15.953c-2.045-5.318-4.156-10.79-6.299-16.355c-17.632-44.057-41.692-92.04-73.871-140.271
					c-32.049-48.261-72.864-96.337-121.309-140.919c-5.877-5.72-12.372-10.945-18.639-16.417c-3.182-2.69-6.331-5.411-9.514-8.131
					l-4.837-4.081l-4.936-3.896c-6.656-5.163-13.378-10.388-20.067-15.613l-5.066-3.896l-5.259-3.71
					c-3.54-2.504-7.048-4.978-10.586-7.451c-13.865-10.11-28.769-19.231-43.575-28.629c-7.468-4.576-15.195-8.842-22.891-13.264
					c-3.799-2.164-7.664-4.328-11.528-6.554c-3.96-2.04-7.923-4.081-11.883-6.122c-63.188-32.957-132.999-57.969-205.474-72.933
					c-9.059-1.701-18.184-3.432-27.275-5.132c-9.093-1.608-18.346-2.721-27.503-4.05l-13.767-1.854l-13.865-1.299l-13.832-1.267
					c-4.612-0.402-9.189-0.897-13.833-1.051c-9.221-0.402-18.476-1.453-27.73-1.855c-2.272-0.093-4.611-0.928-6.916-0.928h-6.949
					l-13.8,0.742l-13.8,0.433c-4.611,0-9.221,0.588-13.8,0.804l-27.438,1.576c-6.234,0.093-2.142,0.155-3.734,0.186l-0.713,0.093
					l-1.462,0.155l-2.857,0.371l-5.779,0.68l-11.495,1.361l-5.781,0.68l-2.857,0.34l-3.539,0.464l-14.548,2.04l-14.545,2.102
					l-7.209,1.082c-2.37,0.371-4.481,0.866-6.754,1.298c-8.864,1.793-17.729,3.617-26.593,5.38
					c-4.416,0.835-8.768,2.041-13.118,3.123l-13.087,3.308l-12.988,3.308l-12.825,3.865c-8.508,2.628-17.047,5.101-25.391,7.945
					c-8.346,2.968-16.625,5.936-24.905,8.904c-65.689,24.857-125.63,58.031-177.161,96.646c-3.247,2.381-6.461,4.792-9.675,7.173
					c-3.15,2.474-6.236,4.978-9.319,7.513c-6.171,5.008-12.372,9.831-18.314,14.964c-11.721,10.481-23.411,20.529-34.094,31.412
					c-2.727,2.659-5.391,5.349-8.118,7.976l-3.994,3.958l-3.832,4.112c-5.097,5.503-10.13,10.976-15.099,16.386l-3.734,4.081
					l-3.572,4.204c-2.305,2.814-4.676,5.596-6.981,8.379c-4.611,5.596-9.45,10.913-13.605,16.695
					c-23.541,30.268-43.479,60.937-59.974,91.174c-8.053,14.686-15.228,29.309-21.561,43.747
					c-19.579,44.088-32.146,86.042-40.068,123.421c-0.877,4.699-1.819,9.306-2.695,13.851c-0.843,4.514-1.85,8.935-2.402,13.356
					c-1.234,8.812-2.469,17.252-3.604,25.383c-0.975,8.162-1.494,16.015-2.209,23.466c-0.292,3.71-0.682,7.328-0.909,10.914
					c-0.13,3.525-0.91,6.987-1.072,10.388C1480.811,1256.587,1479.674,1263.049,1479.674,1269.016z"/>
				
					<linearGradient id="SVGID_00000057870501826660311440000000848116676278517405_" gradientUnits="userSpaceOnUse" x1="260.8264" y1="1251.0669" x2="565.3518" y2="833.714" gradientTransform="matrix(-1 0 0 1 2301.2395 0)">
					<stop  offset="0" style="stop-color:#AA80F9"/>
					<stop  offset="0.9964" style="stop-color:#6165D7"/>
				</linearGradient>
				<path style="opacity:0.4;fill:url(#SVGID_00000057870501826660311440000000848116676278517405_);" d="M1479.674,1269.016v2.473
					c22.729-29.557,63.448-70.614,87.832-94.389c0.455-1.052,1.219-2.103,1.673-3.154c13.605-31.072,31.959-64.709,55.922-98.285
					c23.801-33.669,54.052-66.812,89.314-97.327c4.222-3.958,9.102-7.451,13.616-11.192c2.305-1.824,4.632-3.71,6.97-5.534
					l3.419-2.783c1.202-0.928,2.441-1.762,3.642-2.659c4.837-3.494,9.679-7.018,14.549-10.574l3.638-2.658l3.831-2.474
					c2.534-1.67,5.066-3.339,7.599-4.978c10-6.894,20.781-12.861,31.301-19.168c5.357-3.061,10.976-5.874,16.43-8.78
					c2.695-1.453,5.456-2.937,8.216-4.359c2.825-1.329,5.682-2.69,8.474-4.019c45.069-21.673,94.23-37.348,144.656-45.973
					c6.299-0.99,12.6-1.979,18.964-2.968c6.331-0.834,12.76-1.36,19.061-2.071l9.545-1.02l9.579-0.495l9.579-0.556
					c3.182-0.155,6.331-0.464,9.546-0.402c6.364-0.031,12.728-0.093,19.126-0.123c1.558,0,3.247-0.093,4.707,0l4.254,0.216
					l8.508,0.433l8.443,0.401c0.747,0.031,1.265,0.031,2.24,0.093l8.669,0.618l11.591,0.773l8.671,0.618l1.46,0.093l0.52,0.031
					c0,0.031,3.019,0-2.047,0.093l18.737,2.628c3.084,0.464,6.201,0.742,9.286,1.391l9.188,1.763l9.189,1.731l4.579,0.866
					c1.527,0.278,3.02,0.711,4.514,1.051c6.007,1.453,12.013,2.875,17.989,4.359c3.019,0.619,5.941,1.608,8.864,2.442l8.766,2.628
					l8.768,2.504l8.573,2.999c5.714,2.04,11.43,3.834,16.982,5.998c5.519,2.226,11.071,4.452,16.56,6.709
					c43.672,18.489,82.93,42.388,116.341,69.687l6.299,5.009l5.976,5.349c3.96,3.524,8.053,6.894,11.82,10.511
					c0.162,0.124,0.292,0.31,0.453,0.433c-95.95-113.125-251.386-186.615-426.792-186.615
					c-179.725,0-338.472,77.138-433.742,194.963c-8.053,14.686-15.228,29.309-21.561,43.747
					c-19.579,44.088-32.146,86.042-40.068,123.421c-0.877,4.699-1.819,9.306-2.695,13.851c-0.843,4.514-1.85,8.935-2.402,13.356
					c-1.234,8.812-2.469,17.252-3.604,25.383c-0.975,8.162-1.494,16.015-2.209,23.466c-0.292,3.71-0.682,7.328-0.909,10.914
					c-0.13,3.525-0.91,6.987-1.072,10.388C1480.811,1256.587,1479.674,1263.049,1479.674,1269.016z"/>
			</g>
		</g>
		<g>
			
				<linearGradient id="SVGID_00000145030656233534781530000006613616892267962499_" gradientUnits="userSpaceOnUse" x1="2947.3647" y1="2239.6392" x2="2149.0586" y2="2612.335">
				<stop  offset="0.0036" style="stop-color:#E38DDD"/>
				<stop  offset="1" style="stop-color:#9571F6"/>
			</linearGradient>
			
				<circle style="fill:url(#SVGID_00000145030656233534781530000006613616892267962499_);" cx="2683.354" cy="2362.895" r="548.986"/>
			<g>
				<g>
					
						<linearGradient id="SVGID_00000005233321134719632320000000672244545260475564_" gradientUnits="userSpaceOnUse" x1="1987.197" y1="1637.1448" x2="3059.2749" y2="2831.1563">
						<stop  offset="0.0036" style="stop-color:#E38DDD"/>
						<stop  offset="1" style="stop-color:#9571F6"/>
					</linearGradient>
					<path style="fill:url(#SVGID_00000005233321134719632320000000672244545260475564_);" d="M3187.796,2362.893
						c0,303.196-245.773,549.002-548.968,549.002c-147.906,0-282.146-58.493-380.841-153.634
						c-103.663-99.834-168.16-240.079-168.16-395.369c0-303.195,245.805-548.967,549.001-548.967
						c90.896,0,176.615,22.086,252.087,61.184C3067.291,1966.421,3187.796,2150.594,3187.796,2362.893z"/>
					
						<linearGradient id="SVGID_00000070115971991058875370000001296072815906479270_" gradientUnits="userSpaceOnUse" x1="-586.2874" y1="1772.9083" x2="-1262.2588" y2="5490.7681" gradientTransform="matrix(-1 0 0 1 1945.2706 0)">
						<stop  offset="0.0036" style="stop-color:#E38DDD"/>
						<stop  offset="1" style="stop-color:#9571F6"/>
					</linearGradient>
					
						<circle style="fill:url(#SVGID_00000070115971991058875370000001296072815906479270_);" cx="2638.827" cy="2362.895" r="487.663"/>
				</g>
				<g>
					<g>
						<g>
							<path style="fill:#FFFFFF;" d="M2905.842,2374.561c-18.074-0.03-32.726-15.255-32.726-34.004l65.451,0.108
								C2938.567,2359.414,2923.916,2374.59,2905.842,2374.561z"/>
						</g>
						<path style="fill:#FFFFFF;" d="M2385.794,2141.608c1.297-6.853,6.987-11.709,13.703-11.7l494.811,0.702
							c6.475,0.009,12.127,5.145,13.346,12.119l30.913,176.926l-586.272-0.812L2385.794,2141.608z"/>
						<g>
							<path style="fill:#FFFFFF;" d="M2831.362,2374.438c-18.074-0.03-32.727-15.255-32.727-34.005l65.453,0.109
								C2864.088,2359.291,2849.437,2374.467,2831.362,2374.438z"/>
						</g>
						<g>
							<path style="fill:#FFFFFF;" d="M2756.88,2374.315c-18.075-0.03-32.728-15.255-32.728-34.006l65.455,0.109
								C2789.607,2359.167,2774.955,2374.344,2756.88,2374.315z"/>
						</g>
						<g>
							<path style="fill:#FFFFFF;" d="M2682.396,2374.192c-18.076-0.03-32.729-15.256-32.729-34.006l65.457,0.108
								C2715.125,2359.044,2700.472,2374.221,2682.396,2374.192z"/>
						</g>
						<g>
							<path style="fill:#FFFFFF;" d="M2384.482,2373.7c18.077,0.03,32.731-15.148,32.731-33.899l-65.463-0.108
								C2351.75,2358.443,2366.405,2373.67,2384.482,2373.7z"/>
						</g>
						<g>
							<path style="fill:#FFFFFF;" d="M2458.974,2373.823c18.077,0.03,32.731-15.148,32.731-33.899l-65.462-0.108
								C2426.243,2358.566,2440.897,2373.793,2458.974,2373.823z"/>
						</g>
						<g>
							<path style="fill:#FFFFFF;" d="M2533.464,2373.946c18.076,0.03,32.73-15.147,32.73-33.898l-65.46-0.108
								C2500.734,2358.69,2515.387,2373.916,2533.464,2373.946z"/>
						</g>
						<g>
							<path style="fill:#FFFFFF;" d="M2607.952,2374.069c18.076,0.03,32.729-15.147,32.729-33.898l-65.458-0.109
								C2575.223,2358.813,2589.876,2374.039,2607.952,2374.069z"/>
						</g>
					</g>
					<path style="fill:#FFFFFF;" d="M2658.397,2390.5l-271.426-0.38v236.283c0,8.247,5.026,14.873,12.895,14.873l185.789,0.241
						l306.264,0.415c3.518,0,6.253-1.519,8.772-4.245c2.519-2.726,2.941-6.419,2.941-10.284v-236.593L2658.397,2390.5z
						 M2824.936,2583.302l-204.537-0.276l-161.574-0.207v-139.002l197.118,0.242l168.994,0.207V2583.302z"/>
				</g>
				
					<linearGradient id="SVGID_00000064344433411759709050000009383266021598397325_" gradientUnits="userSpaceOnUse" x1="2955.3699" y1="2331.7817" x2="2183.8079" y2="2691.9917">
					<stop  offset="0.0036" style="stop-color:#E38DDD"/>
					<stop  offset="1" style="stop-color:#9571F6"/>
				</linearGradient>
				<path style="opacity:0.3;fill:url(#SVGID_00000064344433411759709050000009383266021598397325_);" d="M3187.796,2362.893
					c0,303.196-245.773,549.002-548.968,549.002c-147.906,0-282.146-58.493-380.841-153.634c3.796-16.495,9.008-26.813,9.008-26.813
					c22.638,5.314,44.413,8.869,65.36,10.801c110.946,10.215,197.46-25.985,253.502-100.732
					c13.148-17.427,24.571-36.959,34.268-58.492c17.91-39.72,29.919-86.272,35.543-138.967c1.864-17.185,3.036-35.061,3.485-53.558
					c0.209-8.593,0.276-17.323,0.209-26.192c-0.071-7.937-0.276-15.978-0.588-24.122c-0.275-6.902-0.655-13.873-1.104-20.912
					c-1.587-24.674-4.245-50.28-8.007-76.782c-5.935-41.549-5.486-78.819-0.136-112.223
					c17.875-111.188,90.551-179.757,166.713-221.72c25.157-13.873,50.658-24.812,74.676-33.439
					C3067.291,1966.421,3187.796,2150.594,3187.796,2362.893z"/>
			</g>
		</g>
		<g>
			
				<linearGradient id="SVGID_00000168076257569584304000000003979171034479618216_" gradientUnits="userSpaceOnUse" x1="1624.3768" y1="2647.9219" x2="1886.8356" y2="3044.5923">
				<stop  offset="0" style="stop-color:#FFC444"/>
				<stop  offset="0.9964" style="stop-color:#F36F56"/>
			</linearGradient>
			<path style="fill:url(#SVGID_00000168076257569584304000000003979171034479618216_);" d="M1927.242,3134.914l-25.997,2.044
				c-6.755,0.534-13.511,0.267-20.177-0.844l-103.107-16.798l-1.688-0.267l-119.817-19.554l-0.742-0.045l-93.893-15.199v-528.287
				l94.458-0.056h0.178l119.817,5.961l1.777,0.893l144.926,5.58L1927.242,3134.914z"/>
			
				<linearGradient id="SVGID_00000075858573045649922760000007490548514460356782_" gradientUnits="userSpaceOnUse" x1="2032.512" y1="2935.8225" x2="1835.4152" y2="3252.8452">
				<stop  offset="0" style="stop-color:#FFC444"/>
				<stop  offset="0.9964" style="stop-color:#F36F56"/>
			</linearGradient>
			<path style="fill:url(#SVGID_00000075858573045649922760000007490548514460356782_);" d="M2291.841,2589.594v493.082
				c0,17.643-13.552,32.057-31.082,33.099l-343.88,20.455c-13.911,0.827-25.78-10.724-25.78-25.062v-513.705
				c0-14.349,11.251-26.247,25.214-26.636l346.359-9.652C2278.736,2560.727,2291.841,2573.479,2291.841,2589.594z"/>
			
				<linearGradient id="SVGID_00000049213843260117613650000009030007268919348388_" gradientUnits="userSpaceOnUse" x1="1963.1654" y1="2380.4429" x2="1902.3208" y2="2594.8477">
				<stop  offset="0" style="stop-color:#FFC444"/>
				<stop  offset="0.9964" style="stop-color:#F36F56"/>
			</linearGradient>
			<polygon style="fill:url(#SVGID_00000049213843260117613650000009030007268919348388_);" points="1562.558,2555.973 
				1891.099,2571.529 2262.672,2561.174 1881.721,2548.763 			"/>
			
				<linearGradient id="SVGID_00000067942586563789371920000017462455328540524465_" gradientUnits="userSpaceOnUse" x1="2270.074" y1="2601.2854" x2="1882.571" y2="3255.7349">
				<stop  offset="0" style="stop-color:#FFC444"/>
				<stop  offset="0.9964" style="stop-color:#F36F56"/>
			</linearGradient>
			<path style="opacity:0.3;fill:url(#SVGID_00000067942586563789371920000017462455328540524465_);" d="M2262.182,2561.188
				l-271.258,7.559c-15.43,0.43-28.03,13.446-28.013,29.211c0.029,26.311,4.418,53.505,16,79.739
				c38.614,87.466,124.932,90.695,142.891,170.977c14.964,66.892-38.024,95.671-43.625,181.148
				c-1.471,22.455,0.471,46.61,7.157,72.507c3.519,13.632,16.193,22.918,30.009,22.096l149.335-8.883
				c15.322-0.912,27.163-13.504,27.163-28.918v-496.537C2291.841,2573.7,2278.515,2560.733,2262.182,2561.188z"/>
			
				<linearGradient id="SVGID_00000000937146041462357060000018375340080502447252_" gradientUnits="userSpaceOnUse" x1="2027.2491" y1="2605.1218" x2="2183.1934" y2="3390.7253">
				<stop  offset="0" style="stop-color:#AB316D"/>
				<stop  offset="1" style="stop-color:#792D3D"/>
			</linearGradient>
			<polygon style="fill:url(#SVGID_00000000937146041462357060000018375340080502447252_);" points="2011.633,3130.594 
				2139.132,3123.009 2139.132,2564.617 2011.633,2568.17 			"/>
			
				<linearGradient id="SVGID_00000105388465590526531890000012405737120114969752_" gradientUnits="userSpaceOnUse" x1="2050.8916" y1="2849.5562" x2="2327.1106" y2="2808.7068">
				<stop  offset="0" style="stop-color:#AB316D"/>
				<stop  offset="1" style="stop-color:#792D3D"/>
			</linearGradient>
			<polygon style="fill:url(#SVGID_00000105388465590526531890000012405737120114969752_);" points="2017.376,3130.252 
				2139.132,3123.009 2139.132,2564.617 2017.376,2568.01 			"/>
			
				<linearGradient id="SVGID_00000070817601241899131530000016524510041944035474_" gradientUnits="userSpaceOnUse" x1="1691.5157" y1="2843.5061" x2="1955.1592" y2="2804.5166">
				<stop  offset="0" style="stop-color:#AB316D"/>
				<stop  offset="1" style="stop-color:#792D3D"/>
			</linearGradient>
			<polygon style="fill:url(#SVGID_00000070817601241899131530000016524510041944035474_);" points="1774.559,2563.563 
				1774.559,3119.316 1657.762,3099.495 1657.762,2560.407 1694.961,2559.698 			"/>
			
				<linearGradient id="SVGID_00000174599452577802234280000000388889129358067339_" gradientUnits="userSpaceOnUse" x1="1865.2347" y1="2570.4543" x2="2451.2878" y2="2483.7844">
				<stop  offset="0" style="stop-color:#AB316D"/>
				<stop  offset="1" style="stop-color:#792D3D"/>
			</linearGradient>
			<polygon style="fill:url(#SVGID_00000174599452577802234280000000388889129358067339_);" points="1786.538,2550.913 
				2141.96,2571.122 2014.178,2571.122 1703.437,2552.791 			"/>
			<g>
				
					<linearGradient id="SVGID_00000172401915767547318160000004759543579504942497_" gradientUnits="userSpaceOnUse" x1="2162.2903" y1="2398.4399" x2="2017.0842" y2="2549.4543">
					<stop  offset="0" style="stop-color:#AB316D"/>
					<stop  offset="1" style="stop-color:#792D3D"/>
				</linearGradient>
				<path style="fill:url(#SVGID_00000172401915767547318160000004759543579504942497_);" d="M1959.484,2533.852
					c8.276-50.701,14.325-87.755,47.434-121.973c13.962-14.43,29.208-30.187,54.211-34.366c28.752-4.806,65.453,6.527,75.507,30.01
					c9.547,22.297-12.945,36.826-3.388,62.438c9.604,25.74,37.592,25.192,40.658,45.982c2.597,17.609-14.593,37.588-31.945,46.95
					c-29.968,16.168-46.983-6.578-105.516-2.904c-40.335,2.532-63.616,15.302-74.539,2.42
					C1956.704,2556.277,1957.214,2547.761,1959.484,2533.852z"/>
				<g style="opacity:0.3;">
					
						<linearGradient id="SVGID_00000061471389394842813430000003716443449863240636_" gradientUnits="userSpaceOnUse" x1="2185.6741" y1="2420.9243" x2="2040.4674" y2="2571.9392">
						<stop  offset="0" style="stop-color:#AB316D"/>
						<stop  offset="1" style="stop-color:#792D3D"/>
					</linearGradient>
					<path style="fill:url(#SVGID_00000061471389394842813430000003716443449863240636_);" d="M2119.695,2514.007
						c-36.138-13.822-54.66-43.901-70.667-36.786c-14.225,6.323-5.545,32.723-22.265,54.21
						c-15.268,19.622-43.271,24.289-68.152,24.308c0.627,2.512,1.649,4.729,3.294,6.669c10.924,12.882,34.204,0.112,74.539-2.42
						c58.533-3.674,75.548,19.073,105.516,2.904c15.921-8.59,31.657-26.112,32.149-42.546
						C2157.221,2522.162,2138.436,2521.175,2119.695,2514.007z"/>
				</g>
			</g>
			<g>
				
					<linearGradient id="SVGID_00000086692476995454863720000014664598656157635519_" gradientUnits="userSpaceOnUse" x1="1819.1901" y1="2458.6401" x2="2204.8303" y2="2401.6086">
					<stop  offset="0" style="stop-color:#AB316D"/>
					<stop  offset="1" style="stop-color:#792D3D"/>
				</linearGradient>
				<path style="fill:url(#SVGID_00000086692476995454863720000014664598656157635519_);" d="M1741.191,2408.491
					c24.309-19.186,49.936,2.21,79.863-18.877c30.313-21.358,21.505-55.626,45.014-65.343
					c27.312-11.288,67.766,23.156,87.124,45.014c49.17,55.521,72.262,154.092,33.397,188.768
					c-14.587,13.015-55.891,7.651-137.906-3.606c-93.742-12.868-107.233-22.084-116.205-34.147
					C1708.301,2487.792,1713.67,2430.211,1741.191,2408.491z"/>
				<g style="opacity:0.3;">
					
						<linearGradient id="SVGID_00000028317488301471780330000001633955553308471485_" gradientUnits="userSpaceOnUse" x1="1823.6764" y1="2488.9763" x2="2209.3162" y2="2431.9451">
						<stop  offset="0" style="stop-color:#AB316D"/>
						<stop  offset="1" style="stop-color:#792D3D"/>
					</linearGradient>
					<path style="fill:url(#SVGID_00000028317488301471780330000001633955553308471485_);" d="M1895.109,2450.117
						c-13.51-4.261-19.664,11.199-47.434,17.425c-5.096,1.142-54.067,11.373-80.348-19.361
						c-10.427-12.194-15.321-28.593-14.752-45.983c-3.834,1.333-7.625,3.326-11.385,6.293
						c-27.521,21.72-32.889,79.301-8.712,111.809c8.972,12.063,22.463,21.279,116.205,34.147
						c82.014,11.258,123.319,16.621,137.906,3.606c1.96-1.749,3.721-3.701,5.371-5.762c-19.676-0.649-40.32-5.413-55.225-19.891
						C1907.976,2504.464,1918.075,2457.361,1895.109,2450.117z"/>
				</g>
			</g>
			
				<linearGradient id="SVGID_00000077295767052409297590000017313541882399051151_" gradientUnits="userSpaceOnUse" x1="1746.3658" y1="2565.6643" x2="2075.168" y2="2517.0388">
				<stop  offset="0" style="stop-color:#AB316D"/>
				<stop  offset="1" style="stop-color:#792D3D"/>
			</linearGradient>
			<polygon style="fill:url(#SVGID_00000077295767052409297590000017313541882399051151_);" points="1900.933,2561.386 
				1776.273,2566.097 1656.278,2560.407 1695.076,2559.698 1864.936,2556.675 			"/>
		</g>
		<g>
			<g>
				
					<linearGradient id="SVGID_00000109021169157096609430000002604738005513323196_" gradientUnits="userSpaceOnUse" x1="2300.7734" y1="2919.1724" x2="2418.9753" y2="2919.1724">
					<stop  offset="0" style="stop-color:#444B8C"/>
					<stop  offset="0.9964" style="stop-color:#26264F"/>
				</linearGradient>
				<path style="fill:url(#SVGID_00000109021169157096609430000002604738005513323196_);" d="M2308.058,2733.241
					c-14.342,10.5-4.511,44.491,3.957,79.142c14.719,60.23,38.735,185.317,30.812,278.147c-0.845,9.911,7.104,18.36,17.05,18.172
					c0.217-0.004,0.435-0.008,0.652-0.012c10.541-0.199,18.191-9.927,16.114-20.263c-7.344-36.542-28.813-89.524-18.131-133.588
					c17.935-73.984,68.558-97.058,59.356-144.434C2407.518,2757.113,2330.032,2717.154,2308.058,2733.241z"/>
				
					<linearGradient id="SVGID_00000132791295551007260620000003167194977570452873_" gradientUnits="userSpaceOnUse" x1="2547.6387" y1="2703.5327" x2="2545.6611" y2="3018.0215">
					<stop  offset="0" style="stop-color:#444B8C"/>
					<stop  offset="0.9964" style="stop-color:#26264F"/>
				</linearGradient>
				<path style="fill:url(#SVGID_00000132791295551007260620000003167194977570452873_);" d="M2793.052,3026.087
					c-2.123-19.606-48.562-16.333-106.794-43.558c-50.486-23.603-56.739-45.305-98.14-89.4
					c-2.085-2.221-28.355-31.661-63.513-58.639c-41.569-31.897-46.368-22.749-75.081-45.849
					c-54.798-44.089-51.502-88.825-107.293-115.772c-7.601-3.672-31.714-15.318-39.469-7.281
					c-10.654,11.041,15.286,55.227,40.483,85.109c32.971,39.102,64.131,53.049,88.471,69.601
					c110.323,75.026,67.737,194.895,167.828,244.956c54.347,27.182,110.012,13.405,122.67,9.893
					C2752.837,3066.649,2795.124,3045.229,2793.052,3026.087z"/>
				
					<linearGradient id="SVGID_00000065764843247722841760000009480635242709879965_" gradientUnits="userSpaceOnUse" x1="2741.0549" y1="2730.6091" x2="2542.2209" y2="3065.9556">
					<stop  offset="0" style="stop-color:#AA80F9"/>
					<stop  offset="0.9964" style="stop-color:#6165D7"/>
				</linearGradient>
				<path style="fill:url(#SVGID_00000065764843247722841760000009480635242709879965_);" d="M2298.806,2657.672
					c-6.918,3.525-6.867,23.39-6.766,63.121c0.074,29.117,0.48,43.672,4.787,53.613c12.983,29.969,43.745,24.81,95.319,53.805
					c7.534,4.235,67.595,38.894,106.493,104.479c19.143,32.277,28.21,61.1,28.21,61.1c17.104,47.115,14.689,70.805,40.05,97.184
					c16.544,17.208,43.384,31,207.747,33.635c149.812,2.402,224.719,3.603,230.501-19.786
					c7.576-30.644-103.709-82.571-146.412-99.917c-42.811-17.39-64.217-26.085-89.035-21.764
					c-63.917,11.127-87.213,83.115-127.678,74.573c-11.622-2.454-17.25-9.986-37.612-36.242
					c-27.237-35.121-57.268-68.169-82.404-104.823c-39.427-57.492-70.702-96.893-111.412-148.18
					C2320.579,2655.069,2304.333,2654.856,2298.806,2657.672z"/>
				
					<linearGradient id="SVGID_00000124881099936974122930000015523096825042226107_" gradientUnits="userSpaceOnUse" x1="2741.0549" y1="2730.6091" x2="2542.2209" y2="3065.9556">
					<stop  offset="0" style="stop-color:#FF9085"/>
					<stop  offset="1" style="stop-color:#FB6FBB"/>
				</linearGradient>
				<path style="fill:url(#SVGID_00000124881099936974122930000015523096825042226107_);" d="M2298.806,2657.672
					c-6.918,3.525-6.867,23.39-6.766,63.121c0.074,29.117,0.48,43.672,4.787,53.613c12.983,29.969,43.745,24.81,95.319,53.805
					c7.534,4.235,67.595,38.894,106.493,104.479c19.143,32.277,28.21,61.1,28.21,61.1c17.104,47.115,14.689,70.805,40.05,97.184
					c16.544,17.208,43.384,31,207.747,33.635c149.812,2.402,224.719,3.603,230.501-19.786
					c7.576-30.644-103.709-82.571-146.412-99.917c-42.811-17.39-64.217-26.085-89.035-21.764
					c-63.917,11.127-87.213,83.115-127.678,74.573c-11.622-2.454-17.25-9.986-37.612-36.242
					c-27.237-35.121-57.268-68.169-82.404-104.823c-39.427-57.492-70.702-96.893-111.412-148.18
					C2320.579,2655.069,2304.333,2654.856,2298.806,2657.672z"/>
			</g>
			<g>
				
					<linearGradient id="SVGID_00000030451332440485012590000013978148657775068830_" gradientUnits="userSpaceOnUse" x1="2219.1426" y1="2962.0442" x2="2337.345" y2="2962.0442">
					<stop  offset="0" style="stop-color:#444B8C"/>
					<stop  offset="0.9964" style="stop-color:#26264F"/>
				</linearGradient>
				<path style="fill:url(#SVGID_00000030451332440485012590000013978148657775068830_);" d="M2226.428,2776.113
					c-14.342,10.5-4.51,44.491,3.957,79.142c14.719,60.23,38.734,185.317,30.811,278.147c-0.845,9.911,7.104,18.359,17.05,18.171
					c0.217-0.004,0.435-0.008,0.652-0.012c10.541-0.199,18.19-9.927,16.113-20.263c-7.344-36.542-28.813-89.524-18.13-133.588
					c17.934-73.983,68.557-97.058,59.356-144.434C2325.887,2799.985,2248.401,2760.026,2226.428,2776.113z"/>
				
					<linearGradient id="SVGID_00000070835479565435080410000005813713978787589001_" gradientUnits="userSpaceOnUse" x1="2466.0081" y1="2746.4048" x2="2464.0305" y2="3060.8936">
					<stop  offset="0" style="stop-color:#444B8C"/>
					<stop  offset="0.9964" style="stop-color:#26264F"/>
				</linearGradient>
				<path style="fill:url(#SVGID_00000070835479565435080410000005813713978787589001_);" d="M2711.421,3068.959
					c-2.123-19.606-48.561-16.333-106.794-43.558c-50.486-23.603-56.739-45.305-98.14-89.4c-2.085-2.22-28.354-31.661-63.512-58.639
					c-41.569-31.898-46.368-22.749-75.08-45.85c-54.799-44.089-51.502-88.825-107.293-115.772
					c-7.601-3.672-31.714-15.318-39.468-7.281c-10.654,11.041,15.286,55.227,40.483,85.109
					c32.971,39.101,64.131,53.048,88.472,69.601c110.322,75.026,67.737,194.895,167.828,244.956
					c54.347,27.182,110.012,13.405,122.67,9.893C2671.207,3109.521,2713.493,3088.101,2711.421,3068.959z"/>
				
					<linearGradient id="SVGID_00000053542396722839195290000009917678136632616099_" gradientUnits="userSpaceOnUse" x1="2554.9563" y1="2971.6211" x2="2458.9966" y2="3291.1567">
					<stop  offset="0" style="stop-color:#FF9085"/>
					<stop  offset="1" style="stop-color:#FB6FBB"/>
				</linearGradient>
				<path style="fill:url(#SVGID_00000053542396722839195290000009917678136632616099_);" d="M2217.176,2700.544
					c-6.918,3.525-6.867,23.391-6.765,63.121c0.074,29.116,0.48,43.672,4.787,53.614c12.982,29.968,43.744,24.809,95.319,53.805
					c7.533,4.235,67.595,38.895,106.493,104.479c19.143,32.277,28.21,61.1,28.21,61.1c17.104,47.115,14.689,70.805,40.05,97.184
					c16.544,17.208,43.384,31,207.747,33.635c149.813,2.402,224.719,3.603,230.501-19.785
					c7.576-30.644-103.709-82.571-146.413-99.917c-42.811-17.39-64.217-26.085-89.035-21.764
					c-63.917,11.127-87.214,83.115-127.678,74.573c-11.622-2.454-17.25-9.986-37.612-36.242
					c-27.237-35.122-57.268-68.169-82.404-104.824c-39.427-57.492-70.702-96.893-111.412-148.179
					C2238.948,2697.941,2222.703,2697.728,2217.176,2700.544z"/>
			</g>
		</g>
	</g>
</g>
</svg>